<?xml version="1.0" encoding="UTF-8"?>
<svg xmlns="http://www.w3.org/2000/svg" version="1.1" viewBox="0 0 595.3 841.9">
  <defs>
    <style>
      .cls-1 {
        fill: #ffffff;
      }

      .cls-2 {
        fill: none;
        stroke: #ffffff;
        stroke-miterlimit: 10;
      }
    </style>
  </defs>
  <!-- Generator: Adobe Illustrator 28.7.1, SVG Export Plug-In . SVG Version: 1.2.0 Build 142)  -->
  <g>
    <g id="_Слой_1" data-name="Слой_1">
      <line class="cls-2"/>
      <path class="cls-1" d="M367.2,430.3c-18.4-1.8-36.1,7.8-47.2,22.9-5.5,7.6-9.2,16.4-10.6,25.5-4.2-16.7-8.6-33.3-13.4-49.8,18.7,4.8,39,3,55.2-8.7,17-12.2,26.5-32.4,23.9-54-5.9-49.6-58.5-68-99.4-55.8-2.9.9-5.8,1.9-8.7,3,.2-1.3,0-2.6-.6-3.9-3.1-6.3-9.1-9.9-15.2-12.3-4.7-1.9-9.6-3.3-14.5-4.7,4.4-17.2,9-34.3,14-51.4,5-3.9-.3-12.8-6.3-9.5-30,16.4-60.7,31.4-92.1,44.7-.2.1-.4.3-.6.4-2.1,0-4.2,1.3-4.8,4.2-7.5,34.6-16.2,68.9-26,102.9-.8.5-1.6,1.2-2.2,2.3-7.2,15.6-9.9,33.3-6,50.2,1.9,8.4,5.6,15.9,10.4,22.8,2.7,4,6.6,9.1,8.1,14.3-.2.2-.4.3-.5.6-9,14.8-18,29.6-27.1,44.3-.1.2,0,.4-.2.6.1.3.2.7,0,1,0,.1-.2.3-.2.4,0,0,0,.1,0,0,0,0,0,.2,0,.2,0,.2,0,.3-.1.5,0,.1,0,.1,0,0,0,0,0,.1,0,.2,0,.6,0,1.2.2,1.8,0,0,0,.2,0,.3.2,1.1.5,2.1.8,3.2,1,1.7,2.7,2.9,4.8,3,6.6.4,13.1,1,19.7,1.9,6.1.9,12.8,1.5,18.4,4.2,1.5.7,3.2.8,4.7.3,0,0,0,0,.1,0,2.8,0,5.9-2.7,5.6-5.9-1.1-10.7-2.1-21.4-3.3-32-.6-5.1-1.3-10.2-3-15.1-1.6-4.9-3.5-11.4-8.5-13.4-.3-.1-.6,0-.9,0-.4-1.7-1-3.5-1.7-5.1-3.7-8.1-10-14.4-13.5-22.7-6-14.2-5.1-30.9.3-45.2.8,0,1.7-.3,2.6-.9,14.2-9.7,28.6-19.1,42.9-28.5.5.8.9,1.6,1.4,2.4.1.2.4.4.5.6,2,4.5,4.5,8.7,8.2,11.9,3.8,3.4,7.9,6.2,12.4,8.5,3.5,2.2,7.3,3.9,11.2,5.3.1,0,.2,0,.3,0,.1,0,.2,0,.3,0,0,0,0,0,.1,0,.4.1.7.2,1.1.3,1.2.3,2.4.3,3.6.7.6.2.9.8.8,1.4,0,0,0,0,0,0,8.8,49.5,9.8,100.3,2.6,150.1-.2,1.5.1,2.7.7,3.8-1.6,3.8,1.3,9.6,6.5,8.5,28.2-6.1,56.8-11,85.5-9.7.2-.1.5-.2.8,0,.9.4,1.9.5,2.9.6.1,0,.2,0,.3,0,.3,0,.5.2.8.2,0,0,0,0,0,0,.2,0,.3,0,.5-.1.2,0,.4.2.6.2s.1,0,.2,0c0,0,.1,0,.2,0,0,0,0,0,0,0,.2,0,.4.1.7.1s0,0,0,0c.3,0,.5.2.9.2s0,0,0,0c.3,0,.5.2.9.2s0,0,0,0c.3.2.7.2,1.1.3.2,0,.4,0,.6.1.5.1,1.1.2,1.7.3,0,0,0,0,0,0,0,0,0,0,.1,0,1.7.2,3.5.3,4.9-.4.3-.2.5-.3.8-.5,0,0,0,0,.1-.1.3-.4.6-.7.8-1.1.1-.2.3-.5.3-.7.2-.5.4-1.1.4-1.7,0,0,0,0,0,0,0-.8-.2-1.5-.3-2.3,0,0,0,0,0,0,0-.3-.1-.6-.2-.9-.3-.7-.7-1.4-.9-2.1-.5-1-1.3-2.4-1.2-3.7,0,0,0-.1,0-.2-1.6-6.3-3.1-12.6-4.7-18.9,7.5,10.5,18.1,18.7,30.3,21.9,21.9,5.8,44.8-5.3,51.1-28.7,2-7.3-8.8-10.4-10.8-3.1-4.4,16.1-19.4,24.1-34.7,21.2-13.6-2.6-25.1-12.6-31.4-25.3-13-26.4,4.6-59.5,32.2-64.3,16-2.8,34.6,6.1,38.4,23.4-.4.1-.8.2-1.1.4-17.7,4.7-35.4,9.4-53.2,14.1-7,1.8-4,13.1,3,11.3,17.8-4.7,35.6-9.4,53.5-14.2.2,0,.3-.2.4-.3,0,0,0,0,0,0,.2,0,.3,0,.5-.1,0,0,.1,0,.2,0,.4,0,.6-.2.9-.3.3,0,.6-.1.9-.3.3-.1.8-.1,1.1-.3.2-.1.5,0,.7-.2.2,0,.4,0,.6-.2.2,0,.5-.1.7-.2,1.5-.6,2.7-1.7,3.1-3.3.5-.8.8-1.8.6-3.1-2.2-21.8-19.3-36.8-39.7-38.7ZM225.6,548.3c7.3-52.7,6-106.1-3.9-158.2,9.3-8.1,17.3-17.7,24.5-27.9,7.6-10.8,16.5-22.6,20-35.8,4-1.8,8.2-3.4,12.4-4.7,23.5-7,51.1-4.4,69.6,13.8,16.4,16.1,22.1,43.8,8.2,63.6-16,22.8-45.2,24.6-68.7,15-5.2-2.1-7.9,4-5.8,8.2,0,.1.1.2.1.3,0,.3.3.6.4,1,.2.5.4.9.6,1.4,0,.5.2.9.4,1.3,0,.1,0,.2,0,.4,0,.2.1.5.2.7,0,.5.2.9.4,1.4,10.9,36.5,19.4,73.9,28.8,110.9-29.3-2.2-58.6,2.7-87.4,8.7Z"/>
    </g>
  </g>
</svg>